<svg xmlns="http://www.w3.org/2000/svg" width="257.031" height="79.712" viewBox="0 0 257.031 79.712">
  <g id="Group_2116" data-name="Group 2116" transform="translate(-234 -715.671)">
    <path id="Path_2126" data-name="Path 2126" d="M318.007,751.1h-7.891l-10.5-29.175h8.446l4.28,13.5c.721,2.222,1.5,5,1.833,6.392.332-1.448,1.112-4.113,1.835-6.392l4.277-13.5h8.225Z" transform="translate(51.501 4.911)" fill="#ec431c"/>
    <path id="Path_2127" data-name="Path 2127" d="M317.789,726.839h7.668v29.175h-7.668Zm3.832-2.387a4.391,4.391,0,1,1,4.389-4.391,4.435,4.435,0,0,1-4.389,4.391" transform="translate(65.332)" fill="#ec431c"/>
    <path id="Path_2128" data-name="Path 2128" d="M336.524,751.982a22.9,22.9,0,0,1-12.225-3.39l2.556-5.833a20.372,20.372,0,0,0,10.112,2.665c3,0,3.891-.721,3.891-2.222,0-1.333-1.057-2-4.279-2.945-7-2.112-11.5-3.834-11.5-10,0-6.056,4.834-8.667,11.668-8.667a23.245,23.245,0,0,1,10.779,2.831l-2.444,6.058a18.928,18.928,0,0,0-8.5-2.335c-3.113,0-3.947.612-3.947,1.89,0,1.223.889,1.723,6.058,3.39,5.223,1.724,9.724,3.614,9.724,9.446,0,6.724-5.335,9.114-11.891,9.114" transform="translate(70.879 4.644)" fill="#ec431c"/>
    <path id="Path_2129" data-name="Path 2129" d="M340.73,726.839H348.4v29.175H340.73Zm3.834-2.387a4.391,4.391,0,1,1,4.391-4.391,4.435,4.435,0,0,1-4.391,4.391" transform="translate(83.341)" fill="#ec431c"/>
    <path id="Path_2130" data-name="Path 2130" d="M360.161,728.978c-3.666,0-5.391,3.332-5.391,7.832s1.724,7.782,5.391,7.782,5.446-3.723,5.446-7.782c0-4.443-1.778-7.832-5.446-7.832m0,23c-7.613,0-13.168-6.224-13.168-15.172s5.555-15.222,13.168-15.222,13.226,6.278,13.226,15.222-5.614,15.172-13.226,15.172" transform="translate(88.693 4.644)" fill="#ec431c"/>
    <path id="Path_2131" data-name="Path 2131" d="M381.451,751.37V735.588c0-5.223-1.776-6.779-4.944-6.779s-5,1.557-5,6.615V751.37h-7.668V722.2H371.5v1.947a9.566,9.566,0,0,1,6.834-2.556c7.449,0,10.781,5.112,10.781,13.335V751.37Z" transform="translate(101.913 4.644)" fill="#ec431c"/>
    <path id="Path_2132" data-name="Path 2132" d="M304.056,753.445c-2.317,0-3.836-2.1-3.836-4.882,0-2.822,1.587-4.909,3.877-4.909a3.477,3.477,0,0,1,3.024,1.517l-.839.635a2.449,2.449,0,0,0-2.212-1.191c-1.626,0-2.8,1.614-2.8,3.916,0,2.322,1.223,3.946,2.81,3.946s2.454-.973,2.454-2.833v-.082H304.83v-.975h2.74v.923c0,2.617-1.507,3.932-3.515,3.932" transform="translate(51.979 21.966)" fill="#a5948d"/>
    <path id="Path_2133" data-name="Path 2133" d="M311.852,744.7h-2.658v3.541h2.524c1.407,0,2.074-.584,2.074-1.778,0-1.166-.678-1.763-1.94-1.763m.76,4.407,2.088,4.125h-1.223l-2.031-4.043h-2.253v4.043h-1.058v-9.5h3.757c1.669,0,2.956.855,2.956,2.688a2.593,2.593,0,0,1-2.236,2.683" transform="translate(58.192 22.03)" fill="#a5948d"/>
    <path id="Path_2134" data-name="Path 2134" d="M319.741,746.736c-.216-.627-.487-1.481-.582-1.874-.095.382-.366,1.237-.6,1.9l-1.044,3.093h3.268Zm2.183,6.5-.814-2.415h-3.918l-.828,2.415h-1.085l3.3-9.5h1.166l3.3,9.5Z" transform="translate(63.799 22.03)" fill="#a5948d"/>
    <path id="Path_2135" data-name="Path 2135" d="M326.718,744.7h-2.456v3.838h2.319c1.451,0,2.144-.662,2.144-1.924a1.772,1.772,0,0,0-2.006-1.914m-.152,4.8h-2.3v3.73H323.2v-9.494h3.552a2.7,2.7,0,0,1,3.024,2.833c0,1.887-1.316,2.931-3.215,2.931" transform="translate(70.021 22.03)" fill="#a5948d"/>
    <path id="Path_2136" data-name="Path 2136" d="M336.155,753.232v-4.477h-4.719v4.477h-1.059v-9.5h1.059v4.057h4.719v-4.057h1.058v9.5Z" transform="translate(75.65 22.029)" fill="#a5948d"/>
    <rect id="Rectangle_4138" data-name="Rectangle 4138" width="1.058" height="9.496" transform="translate(421.474 765.767)" fill="#a5948d"/>
    <path id="Path_2137" data-name="Path 2137" d="M347.188,753.445c-2.319,0-3.839-2.1-3.839-4.882,0-2.822,1.585-4.909,3.879-4.909a3.479,3.479,0,0,1,3.024,1.517l-.841.635a2.443,2.443,0,0,0-2.208-1.191c-1.63,0-2.8,1.614-2.8,3.916,0,2.322,1.207,3.946,2.808,3.946a2.8,2.8,0,0,0,2.347-1.246l.734.637a3.727,3.727,0,0,1-3.106,1.574" transform="translate(85.832 21.966)" fill="#a5948d"/>
    <path id="Path_2138" data-name="Path 2138" d="M353.81,753.445a4.524,4.524,0,0,1-3.19-1.315l.707-.787a3.6,3.6,0,0,0,2.522,1.137c1.26,0,2.049-.619,2.049-1.624,0-.88-.53-1.385-2.267-2.008-2.047-.732-2.738-1.4-2.738-2.767,0-1.519,1.192-2.426,2.97-2.426a4.275,4.275,0,0,1,2.89,1.014l-.68.828a3.3,3.3,0,0,0-2.279-.88c-1.3,0-1.844.65-1.844,1.4,0,.787.355,1.233,2.253,1.912,2.1.759,2.752,1.467,2.752,2.874,0,1.494-1.166,2.647-3.145,2.647" transform="translate(91.54 21.966)" fill="#a5948d"/>
    <rect id="Rectangle_4139" data-name="Rectangle 4139" width="1.057" height="9.496" transform="translate(462.458 765.767)" fill="#a5948d"/>
    <path id="Path_2139" data-name="Path 2139" d="M372.837,753.232l-4.15-6.5c-.2-.327-.557-.951-.676-1.2v7.691h-1.019v-9.5h1.03l4.113,6.619c.2.327.555.951.675,1.2v-7.815h1.021v9.5Z" transform="translate(104.39 22.03)" fill="#a5948d"/>
    <path id="Path_2140" data-name="Path 2140" d="M377.9,753.445c-2.32,0-3.839-2.1-3.839-4.882,0-2.822,1.587-4.909,3.879-4.909a3.481,3.481,0,0,1,3.024,1.517l-.841.635a2.449,2.449,0,0,0-2.212-1.191c-1.626,0-2.793,1.614-2.793,3.916,0,2.322,1.207,3.946,2.808,3.946a2.808,2.808,0,0,0,2.347-1.246l.732.637a3.722,3.722,0,0,1-3.1,1.574" transform="translate(109.942 21.966)" fill="#a5948d"/>
    <path id="Path_2141" data-name="Path 2141" d="M341.574,727.982,234.049,750.524v15.049H341.574Z" transform="translate(0.038 9.664)" fill="#a5948d"/>
    <path id="Path_2142" data-name="Path 2142" d="M341.574,721.587H234.049v29.4l107.525-22.042Z" transform="translate(0.038 4.644)" fill="#ec431c"/>
    <path id="Path_2143" data-name="Path 2143" d="M235.687,761.789a3.1,3.1,0,0,0,.587.034,2.328,2.328,0,0,0,2.551-2.617,2.16,2.16,0,0,0-2.374-2.374,3.653,3.653,0,0,0-.764.066ZM234,755.7a13.652,13.652,0,0,1,2.274-.166,4.877,4.877,0,0,1,3.072.8,3.294,3.294,0,0,1,1.264,2.818,3.827,3.827,0,0,1-1.23,3.027,5.4,5.4,0,0,1-3.461.964,14.614,14.614,0,0,1-1.919-.109Z" transform="translate(0 31.291)" fill="#7a7a75"/>
    <path id="Path_2144" data-name="Path 2144" d="M242.636,759.859l-.466-1.587c-.123-.444-.255-1.008-.368-1.442h-.032c-.1.445-.221,1.01-.334,1.442l-.453,1.587Zm-1.9,1.264-.523,1.919h-1.753l2.285-7.475h2.208l2.329,7.475h-1.819l-.578-1.919Z" transform="translate(3.505 31.315)" fill="#7a7a75"/>
    <path id="Path_2145" data-name="Path 2145" d="M244.577,756.986h-2.019v-1.419H248.3v1.419h-2.042v6.056h-1.685Z" transform="translate(6.718 31.316)" fill="#7a7a75"/>
    <path id="Path_2146" data-name="Path 2146" d="M250.245,759.859l-.466-1.587c-.123-.444-.255-1.008-.368-1.442h-.032c-.1.445-.221,1.01-.334,1.442l-.453,1.587Zm-1.9,1.264-.521,1.919h-1.753l2.285-7.475h2.208l2.329,7.475h-1.819l-.577-1.919Z" transform="translate(9.477 31.315)" fill="#7a7a75"/>
    <rect id="Rectangle_4140" data-name="Rectangle 4140" width="0.862" height="8.475" transform="translate(270.174 786.908)" fill="#7a7a75"/>
    <path id="Path_2147" data-name="Path 2147" d="M260.924,759.083a2.483,2.483,0,0,0,.566.045c.9,0,1.453-.455,1.453-1.208,0-.687-.477-1.1-1.332-1.1a2.99,2.99,0,0,0-.687.055Zm-1.674-3.393a13.77,13.77,0,0,1,2.285-.155,3.516,3.516,0,0,1,2.285.611,2.115,2.115,0,0,1,.8,1.719,2.312,2.312,0,0,1-.687,1.774,3.519,3.519,0,0,1-2.429.787,2.856,2.856,0,0,1-.577-.045v2.685H259.25Z" transform="translate(19.82 31.291)" fill="#7a7a75"/>
    <path id="Path_2148" data-name="Path 2148" d="M265.06,758.907h.666c.843,0,1.342-.421,1.342-1.076,0-.676-.466-1.032-1.242-1.032a3.451,3.451,0,0,0-.766.055Zm-1.674-3.206a13.245,13.245,0,0,1,2.251-.166,3.745,3.745,0,0,1,2.419.6,1.877,1.877,0,0,1,.7,1.565,1.981,1.981,0,0,1-1.319,1.83v.034a1.86,1.86,0,0,1,1,1.385c.234.855.455,1.829.6,2.119H267.3a10.071,10.071,0,0,1-.509-1.74c-.212-.944-.534-1.187-1.232-1.2h-.5v2.938h-1.674Z" transform="translate(23.066 31.291)" fill="#7a7a75"/>
    <rect id="Rectangle_4141" data-name="Rectangle 4141" width="1.687" height="7.475" transform="translate(293.979 786.881)" fill="#7a7a75"/>
    <path id="Path_2149" data-name="Path 2149" d="M269.895,763.042v-7.475h1.974l1.553,2.74a23.57,23.57,0,0,1,1.221,2.561h.021a30.782,30.782,0,0,1-.134-3.127v-2.174h1.553v7.475h-1.774l-1.6-2.884a26.81,26.81,0,0,1-1.3-2.638h-.045c.057,1,.079,2.051.079,3.272v2.251Z" transform="translate(28.175 31.316)" fill="#7a7a75"/>
    <path id="Path_2150" data-name="Path 2150" d="M276.411,756.986h-2.019v-1.419h5.746v1.419H278.1v6.056h-1.685Z" transform="translate(31.705 31.316)" fill="#7a7a75"/>
    <rect id="Rectangle_4142" data-name="Rectangle 4142" width="0.862" height="8.475" transform="translate(319.067 786.908)" fill="#7a7a75"/>
    <path id="Path_2151" data-name="Path 2151" d="M288.327,761.789a3.129,3.129,0,0,0,.589.034,2.329,2.329,0,0,0,2.551-2.617,2.161,2.161,0,0,0-2.374-2.374,3.689,3.689,0,0,0-.766.066Zm-1.685-6.088a13.651,13.651,0,0,1,2.274-.166,4.877,4.877,0,0,1,3.072.8,3.294,3.294,0,0,1,1.264,2.818,3.827,3.827,0,0,1-1.23,3.027,5.4,5.4,0,0,1-3.461.964,14.615,14.615,0,0,1-1.919-.109Z" transform="translate(41.321 31.291)" fill="#7a7a75"/>
    <rect id="Rectangle_4143" data-name="Rectangle 4143" width="1.687" height="7.475" transform="translate(336.443 786.881)" fill="#7a7a75"/>
    <path id="Path_2152" data-name="Path 2152" d="M295.254,758.907h.666c.843,0,1.342-.421,1.342-1.076,0-.676-.466-1.032-1.242-1.032a3.451,3.451,0,0,0-.766.055ZM293.58,755.7a13.261,13.261,0,0,1,2.251-.166,3.745,3.745,0,0,1,2.419.6,1.877,1.877,0,0,1,.7,1.565,1.981,1.981,0,0,1-1.319,1.83v.034a1.86,1.86,0,0,1,1,1.385c.234.855.455,1.829.6,2.119H297.5a9.861,9.861,0,0,1-.51-1.74c-.212-.944-.534-1.187-1.232-1.2h-.5v2.938H293.58Z" transform="translate(46.767 31.291)" fill="#7a7a75"/>
    <path id="Path_2153" data-name="Path 2153" d="M302.128,759.881h-2.751v1.774h3.072v1.387h-4.759v-7.475h4.6v1.387h-2.917v1.553h2.751Z" transform="translate(49.994 31.316)" fill="#7a7a75"/>
    <path id="Path_2154" data-name="Path 2154" d="M307.054,762.88a4.955,4.955,0,0,1-1.908.321,3.562,3.562,0,0,1-3.914-3.748,3.8,3.8,0,0,1,4.08-3.948,4.647,4.647,0,0,1,1.842.321l-.355,1.342a3.546,3.546,0,0,0-1.419-.279,2.453,2.453,0,0,0,.011,4.9,4.025,4.025,0,0,0,1.421-.245Z" transform="translate(52.773 31.267)" fill="#7a7a75"/>
    <path id="Path_2155" data-name="Path 2155" d="M307.331,756.986h-2.019v-1.419h5.746v1.419h-2.04v6.056h-1.687Z" transform="translate(55.976 31.316)" fill="#7a7a75"/>
    <path id="Path_2156" data-name="Path 2156" d="M317.527,760.18c-.032-.9-.066-1.974-.066-3.072h-.023c-.243.953-.553,2.019-.842,2.9l-.909,2.917h-1.321l-.8-2.9c-.245-.876-.489-1.93-.676-2.917h-.023c-.032,1.008-.077,2.162-.121,3.1l-.145,2.838h-1.564l.477-7.475h2.253l.732,2.5c.243.866.466,1.8.632,2.674h.045c.2-.866.453-1.853.709-2.685l.789-2.485h2.217l.4,7.475h-1.642Z" transform="translate(60.471 31.315)" fill="#7a7a75"/>
    <path id="Path_2157" data-name="Path 2157" d="M320.674,759.859l-.466-1.587c-.121-.444-.253-1.008-.366-1.442h-.032c-.1.445-.223,1.01-.334,1.442l-.455,1.587Zm-1.9,1.264-.521,1.919H316.5l2.285-7.475h2.206l2.329,7.475h-1.817l-.578-1.919Z" transform="translate(64.761 31.315)" fill="#7a7a75"/>
    <rect id="Rectangle_4144" data-name="Rectangle 4144" width="1.687" height="7.475" transform="translate(389.845 786.881)" fill="#7a7a75"/>
    <path id="Path_2158" data-name="Path 2158" d="M323.5,755.567h1.687v6.056h2.972v1.419H323.5Z" transform="translate(70.255 31.316)" fill="#7a7a75"/>
    <rect id="Rectangle_4145" data-name="Rectangle 4145" width="0.862" height="8.475" transform="translate(405.997 786.908)" fill="#7a7a75"/>
    <path id="Path_2159" data-name="Path 2159" d="M335.35,755.567h4.559v1.387h-2.872v1.708h2.683v1.375h-2.683v3.006H335.35Z" transform="translate(79.554 31.316)" fill="#7a7a75"/>
    <path id="Path_2160" data-name="Path 2160" d="M340.764,755.567v4.293c0,1.3.5,1.951,1.353,1.951.887,0,1.376-.621,1.376-1.951v-4.293h1.685v4.193c0,2.306-1.164,3.4-3.117,3.4-1.885,0-2.984-1.053-2.984-3.427v-4.17Z" transform="translate(82.479 31.316)" fill="#7a7a75"/>
    <path id="Path_2161" data-name="Path 2161" d="M343.779,755.567h1.687v6.056h2.972v1.419h-4.659Z" transform="translate(86.17 31.316)" fill="#7a7a75"/>
    <path id="Path_2162" data-name="Path 2162" d="M347.412,755.567h4.559v1.387H349.1v1.708h2.683v1.375H349.1v3.006h-1.687Z" transform="translate(89.022 31.316)" fill="#7a7a75"/>
    <rect id="Rectangle_4146" data-name="Rectangle 4146" width="1.687" height="7.475" transform="translate(443.095 786.881)" fill="#7a7a75"/>
    <path id="Path_2163" data-name="Path 2163" d="M353.375,755.567h1.687v6.056h2.972v1.419h-4.659Z" transform="translate(93.702 31.316)" fill="#7a7a75"/>
    <path id="Path_2164" data-name="Path 2164" d="M357.008,755.567h1.687v6.056h2.972v1.419h-4.659Z" transform="translate(96.554 31.316)" fill="#7a7a75"/>
    <path id="Path_2165" data-name="Path 2165" d="M367.03,760.18c-.032-.9-.066-1.974-.066-3.072h-.023c-.243.953-.553,2.019-.842,2.9l-.909,2.917h-1.321l-.8-2.9c-.245-.876-.489-1.93-.677-2.917h-.023c-.032,1.008-.077,2.162-.121,3.1l-.145,2.838h-1.564l.477-7.475h2.253l.732,2.5c.243.866.466,1.8.632,2.674h.045c.2-.866.453-1.853.709-2.685l.789-2.485h2.217l.4,7.475h-1.642Z" transform="translate(99.328 31.315)" fill="#7a7a75"/>
    <path id="Path_2166" data-name="Path 2166" d="M370.792,759.881h-2.751v1.774h3.072v1.387h-4.759v-7.475h4.6v1.387h-2.917v1.553h2.751Z" transform="translate(103.891 31.316)" fill="#7a7a75"/>
    <path id="Path_2167" data-name="Path 2167" d="M370.125,763.042v-7.475H372.1l1.553,2.74a23.541,23.541,0,0,1,1.219,2.561h.023a30.764,30.764,0,0,1-.134-3.127v-2.174h1.553v7.475h-1.774l-1.6-2.884a26.776,26.776,0,0,1-1.3-2.638H371.6c.057,1,.079,2.051.079,3.272v2.251Z" transform="translate(106.85 31.316)" fill="#7a7a75"/>
    <path id="Path_2168" data-name="Path 2168" d="M376.572,756.986h-2.019v-1.419H380.3v1.419h-2.04v6.056h-1.687Z" transform="translate(110.326 31.316)" fill="#7a7a75"/>
  </g>
</svg>
